# xmcd
#
# Track frame offsets:
#	150
#	15374
#	31271
#	43141
#	56698
#	73622
#
# Disc length: 1254 seconds
# Revision: 0
# Processed by: cddbd v1.5.2PL0 Copyright (c) Steve Scherf et al.
# Submitted via: dBpowerAMP V12.0
#
DISCID=4704e406
DTITLE=Todd Fritsch - American Cowboy
DYEAR=2001
DGENRE=Country
TTITLE0=Colorado Blue
TTITLE1=Restless Young Hearts
TTITLE2=Cowboy Song
TTITLE3=In A Country Song
TTITLE4=Faith Ain't Faith
TTITLE5=Why
EXTD=
EXTT0=
EXTT1=
EXTT2=
EXTT3=
EXTT4=
EXTT5=
PLAYORDER=
